<svg fill="none" xmlns="http://www.w3.org/2000/svg">
<path id="Vector" fill-rule="evenodd" clip-rule="evenodd" d="M18.9119 17.842C18.9119 18.6703 20.3346 19.497 22.0889 19.497C23.8432 19.497 25.2663 18.6707 25.2663 17.842C25.2663 17.0157 23.8432 16.1874 22.0889 16.1874C20.3346 16.1874 18.9119 17.0157 18.9119 17.842ZM5.39268 19.1703C5.39268 27.9131 12.6935 35 21.7001 35C30.7 35 38 27.9126 38 19.1703C38 10.4279 30.7 3.34139 21.7001 3.34139C19.1619 3.34139 16.7605 3.90584 14.6177 4.9083C14.7471 5.46499 14.8196 6.04534 14.8196 6.642C14.8196 10.9222 11.2459 14.3896 6.83983 14.3896C6.61349 14.3896 6.38715 14.3819 6.16082 14.3578C5.66752 15.8774 5.39268 17.492 5.39268 19.1703ZM32.5028 17.3652L19.8492 25.1365L11.5941 21.4619L12.492 20.9207L19.8496 24.134L31.6054 16.9035L32.5028 17.3652ZM32.5028 19.0353L19.8492 26.807L11.5941 23.1324L12.492 22.5916L19.8496 25.8045L31.6054 18.574L32.5028 19.0353ZM32.5028 15.6947L19.8492 23.466L11.5941 19.791L24.2478 12.0189L32.5028 15.6947ZM0 6.642C0 10.3093 3.06424 13.2848 6.84024 13.2848C10.6241 13.2848 13.6801 10.3097 13.6801 6.642C13.6801 2.97516 10.6237 0 6.84024 0C3.06424 0 0 2.97516 0 6.642ZM7.73729 4.04899V5.95847H9.71006C10.0989 5.95847 10.4135 6.26842 10.4135 6.642C10.4135 7.02414 10.0985 7.32635 9.71006 7.32635H7.73729V9.24358C7.73729 9.61716 7.40608 9.90387 7.01808 9.90387C6.62966 9.90387 6.33078 9.61716 6.33078 9.24358V7.32635H4.36588C3.97788 7.32635 3.66242 7.02374 3.66242 6.642C3.66242 6.26802 3.97788 5.95847 4.36588 5.95847H6.33078V4.04899C6.33078 3.66684 6.64624 3.36546 7.03424 3.36546C7.42225 3.36546 7.73729 3.66684 7.73729 4.04899Z" fill="url(#paint0_radial_528_1479)"/>
<defs>
<radialGradient id="paint0_radial_528_1479" cx="0" cy="0" r="1" gradientUnits="userSpaceOnUse" gradientTransform="translate(18.9999 17.0721) rotate(90) scale(58.0453 63.0206)">
<stop stop-color="#1261BC"/>
<stop offset="1" stop-color="#1261BC" stop-opacity="0"/>
</radialGradient>
</defs>
</svg>
