<svg width="33" height="31" viewBox="0 0 33 31" fill="none" xmlns="http://www.w3.org/2000/svg">
<path id="Vector" fill-rule="evenodd" clip-rule="evenodd" d="M16.2979 15.9302C16.2979 16.6307 17.5011 17.3299 18.9848 17.3299C20.4685 17.3299 21.6721 16.6311 21.6721 15.9302C21.6721 15.2314 20.4685 14.5308 18.9848 14.5308C17.5011 14.5308 16.2979 15.2314 16.2979 15.9302ZM4.86406 17.0536C4.86406 24.4478 11.0387 30.4415 18.6559 30.4415C26.2676 30.4415 32.4415 24.4474 32.4415 17.0536C32.4415 9.65983 26.2676 3.66642 18.6559 3.66642C16.5093 3.66642 14.4783 4.14379 12.6661 4.99162C12.7755 5.46244 12.8368 5.95327 12.8368 6.45789C12.8368 10.0779 9.8144 13.0104 6.08797 13.0104C5.89655 13.0104 5.70512 13.0039 5.5137 12.9835C5.0965 14.2687 4.86406 15.6343 4.86406 17.0536ZM27.7923 15.527L17.0906 22.0995L10.1089 18.9918L10.8683 18.534L17.0909 21.2517L27.0333 15.1365L27.7923 15.527ZM27.7923 16.9395L17.0906 23.5123L10.1089 20.4046L10.8683 19.9472L17.0909 22.6645L27.0333 16.5493L27.7923 16.9395ZM27.7923 14.1142L17.0906 20.6867L10.1089 17.5786L20.8107 11.0054L27.7923 14.1142ZM0.303223 6.45789C0.303223 9.55945 2.89479 12.076 6.08832 12.076C9.28851 12.076 11.8731 9.5598 11.8731 6.45789C11.8731 3.35668 9.28816 0.840454 6.08832 0.840454C2.89479 0.840454 0.303223 3.35668 0.303223 6.45789ZM6.847 4.26486V5.8798H8.51546C8.84431 5.8798 9.11041 6.14194 9.11041 6.45789C9.11041 6.78109 8.84396 7.03668 8.51546 7.03668H6.847V8.65816C6.847 8.97412 6.56688 9.2166 6.23872 9.2166C5.91022 9.2166 5.65744 8.97412 5.65744 8.65816V7.03668H3.99564C3.66749 7.03668 3.40069 6.78074 3.40069 6.45789C3.40069 6.1416 3.66749 5.8798 3.99564 5.8798H5.65744V4.26486C5.65744 3.94167 5.92424 3.68677 6.2524 3.68677C6.58055 3.68677 6.847 3.94167 6.847 4.26486Z" fill="url(#paint0_radial_419_723)"/>
<defs>
<radialGradient id="paint0_radial_419_723" cx="0" cy="0" r="1" gradientUnits="userSpaceOnUse" gradientTransform="translate(6.22344 6.76067) rotate(45) scale(59.8032 64.9292)">
<stop stop-color="#192653"/>
<stop offset="1" stop-color="#192653" stop-opacity="0"/>
</radialGradient>
</defs>
</svg>
