<svg fill="none" xmlns="http://www.w3.org/2000/svg">
<g id="Cash on Hand">
<path id="Vector" d="M61.5122 32.851H56.1367C56.0073 32.851 55.8833 32.9024 55.7918 32.9939C55.7003 33.0853 55.6489 33.2094 55.6489 33.3388V33.9339C53.7758 33.768 47.4832 33.212 45.0832 33.212C42.615 33.212 40.7223 35.4753 39.0541 37.4753C38.7712 37.807 38.498 38.1387 38.2248 38.4411C36.059 37.0851 33.5713 34.7339 31.7372 29.651C31.7071 29.5734 31.6585 29.5044 31.5956 29.45C31.5326 29.3955 31.4573 29.3574 31.3762 29.3389C31.2968 29.3202 31.2139 29.3221 31.1354 29.3442C31.0569 29.3664 30.9853 29.4082 30.9274 29.4657C30.8591 29.5437 23.7373 36.6655 22.1373 38.3143C22.0702 38.3863 22.0253 38.4762 22.008 38.5731C21.9907 38.67 22.0017 38.7698 22.0398 38.8606C26.186 48.0605 37.2688 52.4604 44.5954 55.3676C44.6554 55.3869 44.7179 55.3967 44.7808 55.3969C44.848 55.3991 44.9148 55.3857 44.9759 55.3579C45.0364 55.3306 45.0909 55.2915 45.1361 55.2429C45.1813 55.1944 45.2164 55.1373 45.2393 55.075C45.9801 53.1557 46.9115 51.3156 48.0198 49.5824C50.8783 49.1726 53.4343 47.9824 54.6733 46.519H55.6489V48.2166C55.6489 48.3459 55.7003 48.47 55.7918 48.5615C55.8833 48.653 56.0073 48.7043 56.1367 48.7043H61.5122C61.6416 48.7043 61.7657 48.653 61.8571 48.5615C61.9486 48.47 62 48.3459 62 48.2166V33.3388C62 33.2094 61.9486 33.0853 61.8571 32.9939C61.7657 32.9024 61.6416 32.851 61.5122 32.851ZM30.4591 33.7095C30.4233 33.5917 30.4334 33.4647 30.4873 33.3541C30.5412 33.2434 30.6349 33.1572 30.7497 33.1127C30.8646 33.0683 30.9919 33.0689 31.1063 33.1144C31.2207 33.16 31.3136 33.2471 31.3664 33.3583C31.5904 33.8494 31.8973 34.2982 32.2737 34.6851C32.3194 34.7304 32.3557 34.7844 32.3805 34.8438C32.4053 34.9033 32.418 34.967 32.418 35.0314C32.418 35.0958 32.4053 35.1596 32.3805 35.219C32.3557 35.2785 32.3194 35.3324 32.2737 35.3778C32.1811 35.4646 32.0592 35.5133 31.9323 35.5143C31.805 35.5151 31.6825 35.4661 31.5908 35.3778C31.1054 34.9033 30.7205 34.336 30.4591 33.7095ZM36.9273 48.0409C36.5324 48.1637 36.1213 48.2261 35.7078 48.2263C35.0086 48.2304 34.3223 48.0377 33.7274 47.6702C33.2297 47.3532 32.8059 46.9331 32.4844 46.4383C32.163 45.9435 31.9514 45.3855 31.864 44.802C31.7125 43.9943 31.7966 43.1602 32.1062 42.399C32.4159 41.6379 32.938 40.9819 33.6103 40.5094C34.2497 40.1139 34.9853 39.9014 35.7371 39.8948C36.1138 39.8973 36.4882 39.9531 36.8493 40.0606C37.3965 40.2216 37.9057 40.4912 38.3465 40.8532C38.7873 41.2153 39.1507 41.6624 39.4151 42.1679C39.6554 42.6534 39.7821 43.1871 39.7858 43.7288C39.0248 44.9093 38.6151 45.9434 38.9663 46.5288C38.4806 47.2522 37.7606 47.7862 36.9273 48.0409ZM43.7857 52.3043C43.7492 52.3899 43.6879 52.4627 43.6096 52.5131C43.5314 52.5636 43.4398 52.5894 43.3467 52.5872C43.2764 52.5885 43.2067 52.5752 43.1418 52.5482C42.6284 52.3085 42.13 52.0381 41.6492 51.7384C41.5478 51.6654 41.4783 51.5563 41.455 51.4336C41.4318 51.3109 41.4564 51.1839 41.524 51.0789C41.5915 50.9738 41.6968 50.8986 41.8181 50.8689C41.9394 50.8391 42.0675 50.8571 42.176 50.9189C42.6198 51.1925 43.0791 51.4401 43.5516 51.6604C43.6095 51.6869 43.6616 51.7247 43.7049 51.7716C43.7481 51.8184 43.7816 51.8734 43.8034 51.9333C43.8252 51.9933 43.8348 52.0569 43.8318 52.1206C43.8288 52.1843 43.8131 52.2467 43.7857 52.3043ZM55.6489 45.5434H54.4392C54.3633 45.5429 54.2885 45.5603 54.2206 45.5942C54.1528 45.6281 54.094 45.6776 54.0489 45.7385C53.1514 46.9288 51.1124 47.9629 48.7807 48.4604C49.3857 47.6025 50.0612 46.7964 50.8002 46.0507C50.8569 45.9941 50.8989 45.9246 50.9227 45.8481C50.9465 45.7716 50.9514 45.6905 50.9368 45.6117C50.9186 45.5319 50.8816 45.4576 50.8291 45.3948C50.7765 45.3321 50.7097 45.2827 50.6344 45.2508L49.0734 44.6556C49.6026 44.6481 50.1268 44.5525 50.6246 44.3727C51.6056 43.9994 52.5211 43.4725 53.3367 42.8118C53.4364 42.729 53.499 42.61 53.5109 42.481C53.5228 42.352 53.483 42.2236 53.4002 42.124C53.3174 42.0244 53.1984 41.9617 53.0694 41.9498C52.9404 41.9379 52.812 41.9778 52.7124 42.0606C51.9837 42.6491 51.1673 43.1199 50.2929 43.4557C49.5278 43.7043 48.7121 43.7547 47.9222 43.602C47.3416 43.5025 46.7488 43.4959 46.1662 43.5825C46.1201 43.5842 46.0743 43.5907 46.0296 43.602C45.4822 43.7275 44.9714 43.9779 44.5369 44.3337C42.1857 46.1873 40.9858 46.48 40.4004 46.3922C40.2801 46.377 40.1643 46.3371 40.0602 46.275C39.9561 46.2129 39.866 46.1299 39.7955 46.0312C39.5712 45.602 40.7419 43.8459 42.6052 41.6996C42.615 41.6996 42.6248 41.6898 42.6345 41.6801C42.6497 41.6678 42.6601 41.6505 42.6638 41.6313C43.6003 40.5582 44.7028 39.3874 45.893 38.2265C45.9399 38.1831 45.9775 38.1307 46.0035 38.0724C46.0296 38.014 46.0435 37.951 46.0444 37.8871C46.0453 37.8233 46.0332 37.7599 46.0089 37.7008C45.9845 37.6417 45.9484 37.5883 45.9027 37.5436C45.8587 37.4977 45.8061 37.4611 45.7478 37.4358C45.6896 37.4104 45.6268 37.3969 45.5633 37.396C45.4998 37.3951 45.4367 37.4068 45.3778 37.4305C45.3188 37.4541 45.2651 37.4893 45.2198 37.5338C44.4394 38.2948 43.3174 39.4167 42.2345 40.6362C41.6665 40.2524 41.0659 39.9194 40.4394 39.6411C40.0199 39.4362 39.5614 39.2118 39.0834 38.9387C39.3273 38.6655 39.5614 38.3826 39.7955 38.0997C41.337 36.2656 43.0735 34.1875 45.0832 34.1875C47.4442 34.1875 53.9026 34.7631 55.6489 34.9095V45.5434ZM58.8196 36.2168H58.2245C58.0951 36.2168 57.971 36.1654 57.8795 36.0739C57.7881 35.9824 57.7367 35.8584 57.7367 35.729C57.7367 35.5996 57.7881 35.4755 57.8795 35.3841C57.971 35.2926 58.0951 35.2412 58.2245 35.2412H58.8196C58.9489 35.2412 59.073 35.2926 59.1645 35.3841C59.256 35.4755 59.3074 35.5996 59.3074 35.729C59.3074 35.8584 59.256 35.9824 59.1645 36.0739C59.073 36.1654 58.9489 36.2168 58.8196 36.2168Z" fill="url(#paint1_radial_528_1442)"/>
</g>
<defs>
<radialGradient id="paint0_radial_528_1442" cx="0" cy="0" r="1" gradientUnits="userSpaceOnUse" gradientTransform="translate(13.5 8) rotate(45) scale(91.2168)">
<stop stop-color="#1261BC"/>
<stop offset="1" stop-color="#1261BC" stop-opacity="0"/>
</radialGradient>
<radialGradient id="paint1_radial_528_1442" cx="0" cy="0" r="1" gradientUnits="userSpaceOnUse" gradientTransform="translate(41.9999 42.0429) rotate(90) scale(43.2371 66.3375)">
<stop stop-color="#1261BC"/>
<stop offset="1" stop-color="#1261BC" stop-opacity="0"/>
</radialGradient>
</defs>
</svg>
