<svg fill="none" xmlns="http://www.w3.org/2000/svg">
<path id="Path 6023" d="M33.5639 7.36661C33.3298 6.80965 33.0628 6.26574 32.7643 5.73747L29.5367 0L21.6341 4.03679C21.0864 4.31609 20.5543 4.60863 20.0467 4.90807C19.5407 4.61075 19.008 4.31662 18.4582 4.03679L10.5578 0L7.3329 5.73959C7.03346 6.26706 6.76558 6.81027 6.53057 7.36661H0.165344V13.88C0.165344 20.6874 4.18587 23.8583 12.8174 23.8583H27.2771C35.9092 23.8583 39.9291 20.6874 39.9291 13.8805V7.36661H33.5639ZM34.2439 9.67145H37.511V13.88C37.511 17.8648 36.2711 21.5529 27.2771 21.5529H23.9693L26.5576 20.2306C32.4013 17.2453 34.9222 13.7867 34.2439 9.67304M17.3178 6.06924C17.5063 6.16516 17.6925 6.26321 17.8738 6.36178C17.0195 7.00731 16.2564 7.75548 15.6036 8.58766C15.2905 8.99521 15.0176 9.42952 14.7885 9.88503C13.6536 12.1639 13.8933 14.6776 15.5213 17.5733L16.3553 19.0573L14.6773 18.1992C7.83553 14.7014 7.80662 11.4686 8.38043 9.33704C8.50656 8.87754 8.66977 8.42802 8.86861 7.9925C9.03541 7.62152 9.23502 7.22722 9.45965 6.82657L11.5441 3.11676L17.3178 6.06924ZM17.6547 16.4821C16.4843 14.4009 16.2152 12.7352 16.8074 11.2402C16.8535 11.1236 16.9069 11.007 16.9641 10.8914C17.1653 10.4963 17.4108 10.1231 17.6964 9.77851C18.375 8.98059 19.1661 8.27594 20.0472 7.68459C20.9287 8.27672 21.7202 8.98207 22.3992 9.78063C22.6848 10.1251 22.9299 10.4983 23.1303 10.8936C23.1859 11.0096 23.2415 11.1262 23.2877 11.2423C23.8798 12.7363 23.6102 14.402 22.4398 16.4837L20.0489 20.7389L17.6547 16.4821ZM28.5476 3.12047L30.632 6.83028C30.8611 7.23782 31.0546 7.61887 31.2236 7.99621C31.4223 8.43173 31.5854 8.88125 31.7113 9.34075C32.2856 11.4712 32.2573 14.7072 25.4144 18.2029L23.7369 19.0599L24.5709 17.576C26.1995 14.6802 26.4386 12.1655 25.3038 9.88768C25.0748 9.43059 24.8019 8.99468 24.4887 8.58554C23.8359 7.75329 23.0728 7.00511 22.2185 6.35966C22.4038 6.26038 22.5891 6.16286 22.7745 6.06712L28.5476 3.12047ZM13.5352 20.2306L16.1229 21.5529H12.8174C3.82335 21.5529 2.58344 17.8653 2.58344 13.88V9.67357H5.85057C5.17224 13.7872 7.69319 17.2458 13.5369 20.2311" fill="#4C7DBF"/>
</svg>
